<svg width="55" height="48" viewBox="0 0 55 48" fill="none" xmlns="http://www.w3.org/2000/svg">
<g id="o-email" clip-path="url(#clip0_108_30)">
<g id="Group">
<g id="Group_2">
<path id="Vector" d="M36.4582 24.246L55.0001 34.476V13.584L36.4582 24.246Z" fill="white"/>
</g>
</g>
<g id="Group_3">
<g id="Group_4">
<path id="Vector_2" d="M0 13.584V34.476L18.5419 24.246L0 13.584Z" fill="white"/>
</g>
</g>
<g id="Group_5">
<g id="Group_6">
<path id="Vector_3" d="M51.5624 7.5H3.43746C1.72215 7.5 0.360901 8.616 0.103088 10.053L27.4999 25.806L54.8968 10.053C54.639 8.616 53.2778 7.5 51.5624 7.5Z" fill="white"/>
</g>
</g>
<g id="Group_7">
<g id="Group_8">
<path id="Vector_4" d="M33.3094 26.058L28.4453 28.854C28.1566 29.019 27.83 29.1 27.5 29.1C27.17 29.1 26.8434 29.019 26.5547 28.854L21.6906 26.055L0.109985 37.968C0.374673 39.393 1.72905 40.5 3.43749 40.5H51.5625C53.271 40.5 54.6253 39.393 54.89 37.968L33.3094 26.058Z" fill="white"/>
</g>
</g>
</g>
<defs>
<clipPath id="clip0_108_30">
<rect width="55" height="48" fill="white"/>
</clipPath>
</defs>
</svg>
