<svg width="55" height="48" viewBox="0 0 55 48" fill="none" xmlns="http://www.w3.org/2000/svg">
<g clip-path="url(#clip0_108_28)">
<path d="M46.9434 0H8.05664C3.61458 0 0 3.15454 0 7.03125V40.9688C0 44.8455 3.61458 48 8.05664 48H46.9434C51.3854 48 55 44.8455 55 40.9688V7.03125C55 3.15454 51.3854 0 46.9434 0ZM19.4434 38.0625H12.998V18.375H19.4434V38.0625ZM19.4434 15.5625H12.998V9.9375H19.4434V15.5625ZM42.002 38.0625H35.5566V26.8125C35.5566 25.262 34.1106 24 32.334 24C30.5573 24 29.1113 25.262 29.1113 26.8125V38.0625H22.666V18.375H29.1113V19.4352C30.7999 18.9771 31.8967 18.375 33.9453 18.375C38.3165 18.379 42.002 21.8013 42.002 25.8457V38.0625Z" fill="white"/>
</g>
<defs>
<clipPath id="clip0_108_28">
<rect width="55" height="48" fill="white"/>
</clipPath>
</defs>
</svg>
