<svg width="55" height="48" viewBox="0 0 55 48" fill="none" xmlns="http://www.w3.org/2000/svg">
<g clip-path="url(#clip0_108_22)">
<path d="M27.5 0C12.3955 0 0 10.8179 0 24C0 28.3506 1.34403 32.5858 3.89278 36.2911L0 48L13.4164 44.6027C17.6621 46.827 22.515 48 27.5 48C42.6045 48 55 37.1821 55 24C55 10.8179 42.6045 0 27.5 0ZM44.6934 34.1407L43.414 35.2573C41.6037 36.8372 37.4407 36.7119 34.7657 36.2611C25.871 34.7618 15.5011 25.9896 13.5012 18.3929C12.5109 14.6298 13.0576 11.358 14.4877 10.1096L15.7671 8.99304C16.4733 8.37708 17.6205 8.37781 18.3259 8.99304L23.4444 13.4604C23.786 13.7585 23.9731 14.1537 23.9731 14.5767C23.9731 14.9996 23.786 15.3951 23.4444 15.6921L22.1654 16.8098C20.7555 18.0432 20.7555 20.0468 22.1654 21.2772L30.6178 28.5568C32.0319 29.7909 34.3204 29.7924 35.7367 28.5568L37.0161 27.4406C37.6765 26.8608 38.9102 26.859 39.5761 27.4406L44.6934 31.9065C45.3883 32.5104 45.4147 33.5109 44.6934 34.1407Z" fill="white"/>
</g>
<defs>
<clipPath id="clip0_108_22">
<rect width="55" height="48" fill="white"/>
</clipPath>
</defs>
</svg>
